{"title":"Million.Dollar.Arm.2014.720p.H264.AAC.BRRip.MP4.Raven","uid":11059289,"size":865363705,"categoryP":"video","categoryS":"hd___movies","magnet":"?xt=urn:btih:ed9d800500ca9842804e87fea19f4a088727693c&amp;dn=Million.Dollar.Arm.2014.720p.H264.AAC.BRRip.MP4.Raven&amp;tr=udp%3A%2F%2Ftracker.openbittorrent.com%3A80&amp;tr=udp%3A%2F%2Fopen.demonii.com%3A1337&amp;tr=udp%3A%2F%2Ftracker.coppersurfer.tk%3A6969&amp;tr=udp%3A%2F%2Fexodus.desync.com%3A6969","seeders":0,"leechers":0,"uploader":"Raven1969","files":-1,"time":1411153868,"description":"Million.Dollar.Arm.2014.720p.H264.AAC.BRRip.MP4.Raven.\n\n\n\n\nEnglish, Spanish, Swedish and Dutch subs included.\n\n\n\n\nScreen images:\n\n\n &lt;a href=&quot;\nhttp://i.imgur.com/e91Z73X.png&quot; rel=&quot;nofollow&quot; target=&quot;_NEW&quot;&gt;\nhttp://i.imgur.com/e91Z73X.png&lt;/a&gt;\n\n\n &lt;a href=&quot;\nhttp://i.imgur.com/xrhsr4T.png&quot; rel=&quot;nofollow&quot; target=&quot;_NEW&quot;&gt;\nhttp://i.imgur.com/xrhsr4T.png&lt;/a&gt;\n\n\n &lt;a href=&quot;\nhttp://i.imgur.com/HFS0F79.png&quot; rel=&quot;nofollow&quot; target=&quot;_NEW&quot;&gt;\nhttp://i.imgur.com/HFS0F79.png&lt;/a&gt;\n\n\n &lt;a href=&quot;\nhttp://i.imgur.com/gR51Fr2.png&quot; rel=&quot;nofollow&quot; target=&quot;_NEW&quot;&gt;\nhttp://i.imgur.com/gR51Fr2.png&lt;/a&gt;\n\n\n\n\n\nIMDB:\n\n\n\n\n &lt;a href=&quot;\nhttp://www.imdb.com/title/tt1647668&quot; rel=&quot;nofollow&quot; target=&quot;_NEW&quot;&gt;\nhttp://www.imdb.com/title/tt1647668&lt;/a&gt;\n\n\n\n\n\n\nIMDB Rating:  7.3\n\n\n\n\n\n\nStoryline:\n\nA sports agent stages an unconventional recruitment strategy to get talented Indian cricket players to play Major League Baseball.\n\nIn 2008, J. B. Bernstein is a sports agent who finds his business being seriously outplayed by his deep-pocketed competitors. Inspired by reality shows and Indian cricket games on TV, Bernstein gets the bold idea of finding cricket players in India and training them to become pro baseball players in America. After a long search, Bernstein finds two talented, but non-cricket playing, youths, Rinku Singh and Dinesh Patel. Together, Berthstein takes his prospects to Los Angeles where they find mastering a new sport in a foreign land a daunting challenge. As these boys struggle amid an alien culture, Bernstein must find a way to make their dream come true. In doing, Bernstein finds a deeper humanity to his work with growing friendships he never expected to have.\n\n\n\nGeneral\n\nFormat                                   : MPEG-4\nFormat profile                           : Base Media\nCodec ID                                 : isom\nFile size                                : 823 MiB\nDuration                                 : 2h 4mn\nOverall bit rate mode                    : Variable\nOverall bit rate                         : 926 Kbps\nMovie name                               : Million Dollar Arm\nPerformer                                : Craig Gillespie\nGenre                                    : Sports\nContentType                              : Short Film\nRecorded date                            : 2014-05-16\nEncoded date                             : UTC 2014-09-19 15:36:45\nTagged date                              : UTC 2014-09-19 16:18:55\nTitle/Sort                               : Million Dollar Arm\nLongDescription                          : A sports agent stages an unconventional recruitment strategy to get talented Asian cricket players to play Major League Baseball.\nHDVideo                                  : Yes\nContentRating                            : mpaa|PG|\n\n\n\nVideo\nID                                       : 2\nFormat                                   : AVC\nFormat/Info                              : Advanced Video Codec\nFormat profile                           : &lt;a class=&quot;__cf_email__&quot; href=&quot;/cdn-cgi/l/email-protection&quot; data-cfemail=&quot;420a2b252a020e716c73&quot;&gt;[email&amp;#160;protected]&lt;/a&gt;&lt;script data-cfhash='f9e31' type=&quot;text/javascript&quot;&gt;\n/* &lt;![CDATA[ */!function(){try{var t=&quot;currentScript&quot;in document?document.currentScript:function(){for(var t=document.getElementsByTagName(&quot;script&quot;),e=t.length;e--;)if(t[e].getAttribute(&quot;data-cfhash&quot;))return t[e]}();if(t&amp;&amp;t.previousSibling){var e,r,n,i,c=t.previousSibling,a=c.getAttribute(&quot;data-cfemail&quot;);if(a){for(e=&quot;&quot;,r=parseInt(a.substr(0,2),16),n=2;a.length-n;n+=2)i=parseInt(a.substr(n,2),16)^r,e+=String.fromCharCode(i);e=document.createTextNode(e),c.parentNode.replaceChild(e,c)}t.parentNode.removeChild(t);}}catch(u){}}()/* ]]&gt; */&lt;/script&gt;\nFormat settings, CABAC                   : Yes\nFormat settings, ReFrames                : 4 frames\nCodec ID                                 : avc1\nCodec ID/Info                            : Advanced Video Coding\nDuration                                 : 2h 4mn\nSource duration                          : 2h 4mn\nBit rate                                 : 822 Kbps\nWidth                                    : 1 280 pixels\nHeight                                   : 536 pixels\nDisplay aspect ratio                     : 2.40:1\nFrame rate mode                          : Variable\nFrame rate                               : 35.834 fps\nOriginal frame rate                      : 24.000 fps\nMinimum frame rate                       : 7.042 fps\nMaximum frame rate                       : 1000 000.000 fps\nColor space                              : YUV\nChroma subsampling                       : 4:2:0\nBit depth                                : 8 bits\nScan type                                : Progressive\nBits/(Pixel*Frame)                       : 0.033\nStream size                              : 729 MiB (89%)\nSource stream size                       : 729 MiB (89%)\nLanguage                                 : English\nEncoded date                             : UTC 2014-09-19 15:36:45\nTagged date                              : UTC 2014-09-19 15:36:45\nmdhd_Duration                            : 3149791\n\n\n\n\nAudio\nID                                       : 1\nFormat                                   : AAC\nFormat/Info                              : Advanced Audio Codec\nFormat profile                           : LC\nCodec ID                                 : 40\nDuration                                 : 2h 4mn\nSource duration                          : 2h 4mn\nSource_Duration_FirstFrame               : -21ms\nBit rate mode                            : Variable\nBit rate                                 : 92.1 Kbps\nMaximum bit rate                         : 95.9 Kbps\nChannel(s)                               : 2 channels\nChannel positions                        : Front: L R\nSampling rate                            : 48.0 KHz\nCompression mode                         : Lossy\nStream size                              : 81.8 MiB (10%)\nSource stream size                       : 81.8 MiB (10%)\nLanguage                                 : English\nEncoded date                             : UTC 2014-09-19 15:36:45\nTagged date                              : UTC 2014-09-19 15:36:45\n\n\n\n\n\nText #1\nID                                       : 3\nFormat                                   : Timed Text\nMuxing mode                              : sbtl\nCodec ID                                 : tx3g\nDuration                                 :  2h 4mn\nBit rate mode                            : Variable\nBit rate                                 : 101 bps\nStream size                              : 79.8 KiB (0%)\nLanguage                                 : English\n\n\n\n\n\nText #2\nID                                       : 4\nFormat                                   : Timed Text\nMuxing mode                              : sbtl\nCodec ID                                 : tx3g\nDuration                                 :  2h 4mn\nBit rate mode                            : Variable\nBit rate                                 : 78 bps\nStream size                              : 62.0 KiB (0%)\nLanguage                                 : Swedish\n\n\n\n\n\nText #3\nID                                       : 5\nFormat                                   : Timed Text\nMuxing mode                              : sbtl\nCodec ID                                 : tx3g\nDuration                                 :  2h 4mn\nBit rate mode                            : Variable\nBit rate                                 : 75 bps\nStream size                              : 59.4 KiB (0%)\nLanguage                                 : Spanish\n\n\n\nText #4\nID                                       : 5\nFormat                                   : Timed Text\nMuxing mode                              : sbtl\nCodec ID                                 : tx3g\nDuration                                 :  2h 4mn\nBit rate mode                            : Variable\nBit rate                                 : 75 bps\nStream size                              : 59.4 KiB (0%)\nLanguage                                 : Dutch\n\n\nPLEASE  SEED FOR AS LONG AS POSSIBLE TO KEEP THE TORRENT ALIVE :-)\n\n\n\n\n\n\n\n","torrent":{"xt":"urn:btih:ed9d800500ca9842804e87fea19f4a088727693c","amp;dn":"Million.Dollar.Arm.2014.720p.H264.AAC.BRRip.MP4.Raven","amp;tr":["udp%3A%2F%2Ftracker.openbittorrent.com%3A80","udp%3A%2F%2Fopen.demonii.com%3A1337","udp%3A%2F%2Ftracker.coppersurfer.tk%3A6969","udp%3A%2F%2Fexodus.desync.com%3A6969"],"infoHash":"ed9d800500ca9842804e87fea19f4a088727693c","infoHashBuffer":{"type":"Buffer","data":[237,157,128,5,0,202,152,66,128,78,135,254,161,159,74,8,135,39,105,60]},"announce":[],"urlList":[]}}